<?xml version="1.0" encoding="UTF-8"?>
<svg width="558" height="558" version="1.1" viewBox="0 0 31 31" xmlns="http://www.w3.org/2000/svg">
 <style><![CDATA[* {shape-rendering: crispEdges;} path {fill-rule: evenodd;} .bg {fill: #fff0} .fg {fill: #000}]]></style>
 <rect x="0" y="0" width="31" height="31" class="bg"/>
 <path d="M 1,2 L 1,1 L 8,1 L 8,8 L 1,8 Z M 7,7 L 2,7 L 2,2 L 7,2 L 7,3 Z" class="fg" style="stroke: hsl(10, 100%, 65%); stroke-width: 0.2"/>
 <path d="M 9,2 L 9,1 L 10,1 L 10,3 L 11,3 L 11,4 L 12,4 L 12,8 L 13,8 L 13,9 L 12,9 L 12,10 L 11,10 L 11,7 L 10,7 L 10,8 L 9,8 L 9,6 L 10,6 L 10,5 L 9,5 Z" class="fg" style="stroke: hsl(20, 100%, 65%); stroke-width: 0.2"/>
 <path d="M 14,2 L 14,1 L 15,1 L 15,2 L 16,2 L 16,1 L 18,1 L 18,2 L 17,2 L 17,3 L 14,3 L 14,6 L 13,6 L 13,3 L 12,3 L 12,2 Z" class="fg" style="stroke: hsl(30, 100%, 65%); stroke-width: 0.2"/>
 <path d="M 20,2 L 20,1 L 21,1 L 21,2 Z" class="fg" style="stroke: hsl(40, 100%, 65%); stroke-width: 0.2"/>
 <path d="M 23,2 L 23,1 L 30,1 L 30,8 L 23,8 Z M 29,7 L 24,7 L 24,2 L 29,2 L 29,3 Z" class="fg" style="stroke: hsl(50, 100%, 65%); stroke-width: 0.2"/>
 <path d="M 18,3 L 18,2 L 20,2 L 20,3 Z" class="fg" style="stroke: hsl(60, 100%, 65%); stroke-width: 0.2"/>
 <path d="M 21,3 L 21,2 L 22,2 L 22,5 L 21,5 L 21,4 L 20,4 L 20,3 Z" class="fg" style="stroke: hsl(70, 100%, 65%); stroke-width: 0.2"/>
 <path d="M 3,4 L 3,3 L 6,3 L 6,6 L 3,6 Z" class="fg" style="stroke: hsl(80, 100%, 65%); stroke-width: 0.2"/>
 <path d="M 17,4 L 17,3 L 18,3 L 18,5 L 17,5 L 17,6 L 15,6 L 15,5 L 16,5 L 16,4 Z" class="fg" style="stroke: hsl(90, 100%, 65%); stroke-width: 0.2"/>
 <path d="M 25,4 L 25,3 L 28,3 L 28,6 L 25,6 Z" class="fg" style="stroke: hsl(100, 100%, 65%); stroke-width: 0.2"/>
 <path d="M 19,5 L 19,4 L 20,4 L 20,5 Z" class="fg" style="stroke: hsl(110, 100%, 65%); stroke-width: 0.2"/>
 <path d="M 17,7 L 17,6 L 19,6 L 19,7 L 18,7 L 18,8 L 17,8 Z" class="fg" style="stroke: hsl(120, 100%, 65%); stroke-width: 0.2"/>
 <path d="M 21,7 L 21,6 L 22,6 L 22,9 L 21,9 L 21,10 L 20,10 L 20,12 L 19,12 L 19,9 L 18,9 L 18,8 L 19,8 L 19,7 L 20,7 L 20,8 L 21,8 Z" class="fg" style="stroke: hsl(130, 100%, 65%); stroke-width: 0.2"/>
 <path d="M 13,8 L 13,7 L 14,7 L 14,8 Z" class="fg" style="stroke: hsl(140, 100%, 65%); stroke-width: 0.2"/>
 <path d="M 15,8 L 15,7 L 16,7 L 16,8 Z" class="fg" style="stroke: hsl(150, 100%, 65%); stroke-width: 0.2"/>
 <path d="M 14,9 L 14,8 L 15,8 L 15,10 L 16,10 L 16,11 L 14,11 L 14,10 L 13,10 L 13,9 Z" class="fg" style="stroke: hsl(160, 100%, 65%); stroke-width: 0.2"/>
 <path d="M 1,10 L 1,9 L 3,9 L 3,10 L 4,10 L 4,11 L 2,11 L 2,13 L 1,13 Z" class="fg" style="stroke: hsl(170, 100%, 65%); stroke-width: 0.2"/>
 <path d="M 5,10 L 5,9 L 8,9 L 8,10 L 6,10 L 6,11 L 5,11 Z" class="fg" style="stroke: hsl(180, 100%, 65%); stroke-width: 0.2"/>
 <path d="M 17,10 L 17,9 L 18,9 L 18,10 Z" class="fg" style="stroke: hsl(190, 100%, 65%); stroke-width: 0.2"/>
 <path d="M 24,10 L 24,9 L 25,9 L 25,10 L 26,10 L 26,11 L 27,11 L 27,10 L 26,10 L 26,9 L 30,9 L 30,10 L 28,10 L 28,12 L 27,12 L 27,13 L 29,13 L 29,14 L 28,14 L 28,15 L 29,15 L 29,18 L 30,18 L 30,20 L 29,20 L 29,21 L 28,21 L 28,20 L 25,20 L 25,19 L 24,19 L 24,20 L 23,20 L 23,18 L 22,18 L 22,16 L 23,16 L 23,14 L 19,14 L 19,13 L 20,13 L 20,12 L 22,12 L 22,11 L 21,11 L 21,10 Z M 25,11 L 25,12 L 26,12 L 26,14 L 27,14 L 27,15 L 26,15 L 26,14 L 25,14 L 25,13 L 23,13 L 23,12 L 24,12 L 24,11 Z M 24,15 L 24,16 L 23,16 L 23,17 L 25,17 L 25,18 L 26,18 L 26,17 L 28,17 L 28,16 L 25,16 L 25,15 Z M 27,19 L 26,19 L 26,18 L 27,18 Z" class="fg" style="stroke: hsl(200, 100%, 65%); stroke-width: 0.2"/>
 <path d="M 8,11 L 8,10 L 10,10 L 10,11 Z" class="fg" style="stroke: hsl(210, 100%, 65%); stroke-width: 0.2"/>
 <path d="M 4,12 L 4,11 L 5,11 L 5,12 Z" class="fg" style="stroke: hsl(220, 100%, 65%); stroke-width: 0.2"/>
 <path d="M 6,12 L 6,11 L 8,11 L 8,12 Z" class="fg" style="stroke: hsl(230, 100%, 65%); stroke-width: 0.2"/>
 <path d="M 10,12 L 10,11 L 12,11 L 12,12 L 11,12 L 11,13 L 10,13 Z" class="fg" style="stroke: hsl(240, 100%, 65%); stroke-width: 0.2"/>
 <path d="M 16,12 L 16,11 L 17,11 L 17,12 Z" class="fg" style="stroke: hsl(250, 100%, 65%); stroke-width: 0.2"/>
 <path d="M 29,12 L 29,11 L 30,11 L 30,12 Z" class="fg" style="stroke: hsl(260, 100%, 65%); stroke-width: 0.2"/>
 <path d="M 3,13 L 3,12 L 4,12 L 4,13 Z" class="fg" style="stroke: hsl(270, 100%, 65%); stroke-width: 0.2"/>
 <path d="M 5,13 L 5,12 L 6,12 L 6,13 L 8,13 L 8,14 L 6,14 L 6,15 L 8,15 L 8,16 L 7,16 L 7,17 L 8,17 L 8,16 L 9,16 L 9,15 L 8,15 L 8,14 L 9,14 L 9,13 L 10,13 L 10,15 L 11,15 L 11,16 L 10,16 L 10,17 L 9,17 L 9,19 L 10,19 L 10,20 L 9,20 L 9,21 L 8,21 L 8,20 L 7,20 L 7,21 L 6,21 L 6,22 L 5,22 L 5,20 L 3,20 L 3,19 L 1,19 L 1,18 L 3,18 L 3,17 L 2,17 L 2,15 L 3,15 L 3,14 L 4,14 L 4,16 L 5,16 Z M 5,17 L 5,16 L 6,16 L 6,17 Z M 5,18 L 5,19 L 6,19 L 6,20 L 7,20 L 7,19 L 8,19 L 8,18 Z" class="fg" style="stroke: hsl(280, 100%, 65%); stroke-width: 0.2"/>
 <path d="M 13,13 L 13,12 L 14,12 L 14,13 Z" class="fg" style="stroke: hsl(290, 100%, 65%); stroke-width: 0.2"/>
 <path d="M 15,13 L 15,12 L 16,12 L 16,14 L 14,14 L 14,13 Z" class="fg" style="stroke: hsl(300, 100%, 65%); stroke-width: 0.2"/>
 <path d="M 18,13 L 18,12 L 19,12 L 19,13 Z" class="fg" style="stroke: hsl(310, 100%, 65%); stroke-width: 0.2"/>
 <path d="M 12,14 L 12,13 L 13,13 L 13,14 Z" class="fg" style="stroke: hsl(320, 100%, 65%); stroke-width: 0.2"/>
 <path d="M 1,15 L 1,14 L 2,14 L 2,15 Z" class="fg" style="stroke: hsl(330, 100%, 65%); stroke-width: 0.2"/>
 <path d="M 11,15 L 11,14 L 12,14 L 12,15 Z" class="fg" style="stroke: hsl(340, 100%, 65%); stroke-width: 0.2"/>
 <path d="M 13,15 L 13,14 L 14,14 L 14,15 L 16,15 L 16,16 L 15,16 L 15,18 L 16,18 L 16,19 L 14,19 L 14,18 L 13,18 L 13,17 L 11,17 L 11,16 L 12,16 L 12,15 Z M 14,16 L 14,17 L 13,17 L 13,16 Z" class="fg" style="stroke: hsl(350, 100%, 65%); stroke-width: 0.2"/>
 <path d="M 16,15 L 16,14 L 18,14 L 18,16 L 17,16 L 17,15 Z" class="fg" style="stroke: hsl(360, 100%, 65%); stroke-width: 0.2"/>
 <path d="M 19,16 L 19,15 L 21,15 L 21,18 L 18,18 L 18,20 L 16,20 L 16,19 L 17,19 L 17,17 L 18,17 L 18,16 L 19,16 L 19,17 L 20,17 L 20,16 Z" class="fg" style="stroke: hsl(370, 100%, 65%); stroke-width: 0.2"/>
 <path d="M 10,18 L 10,17 L 11,17 L 11,19 L 10,19 Z" class="fg" style="stroke: hsl(380, 100%, 65%); stroke-width: 0.2"/>
 <path d="M 21,19 L 21,18 L 22,18 L 22,21 L 26,21 L 26,22 L 28,22 L 28,25 L 27,25 L 27,26 L 28,26 L 28,27 L 30,27 L 30,28 L 28,28 L 28,29 L 26,29 L 26,30 L 25,30 L 25,29 L 24,29 L 24,30 L 23,30 L 23,28 L 22,28 L 22,27 L 24,27 L 24,26 L 21,26 L 21,24 L 19,24 L 19,25 L 18,25 L 18,28 L 16,28 L 16,27 L 17,27 L 17,23 L 16,23 L 16,22 L 17,22 L 17,21 L 20,21 L 20,20 L 21,20 Z M 20,22 L 20,23 L 19,23 L 19,24 L 18,24 L 18,22 Z M 25,23 L 25,22 L 22,22 L 22,25 L 25,25 Z M 27,24 L 27,25 L 26,25 L 26,24 Z M 25,26 L 25,27 L 24,27 L 24,28 L 25,28 L 25,27 L 26,27 L 26,26 Z M 26,28 L 26,27 L 27,27 L 27,28 Z" class="fg" style="stroke: hsl(390, 100%, 65%); stroke-width: 0.2"/>
 <path d="M 19,20 L 19,19 L 20,19 L 20,20 Z" class="fg" style="stroke: hsl(400, 100%, 65%); stroke-width: 0.2"/>
 <path d="M 10,21 L 10,20 L 11,20 L 11,22 L 10,22 Z" class="fg" style="stroke: hsl(410, 100%, 65%); stroke-width: 0.2"/>
 <path d="M 13,21 L 13,20 L 14,20 L 14,21 Z" class="fg" style="stroke: hsl(420, 100%, 65%); stroke-width: 0.2"/>
 <path d="M 15,21 L 15,20 L 16,20 L 16,22 L 14,22 L 14,21 Z" class="fg" style="stroke: hsl(430, 100%, 65%); stroke-width: 0.2"/>
 <path d="M 1,22 L 1,21 L 3,21 L 3,22 Z" class="fg" style="stroke: hsl(440, 100%, 65%); stroke-width: 0.2"/>
 <path d="M 7,22 L 7,21 L 8,21 L 8,22 Z" class="fg" style="stroke: hsl(450, 100%, 65%); stroke-width: 0.2"/>
 <path d="M 12,22 L 12,21 L 13,21 L 13,22 Z" class="fg" style="stroke: hsl(460, 100%, 65%); stroke-width: 0.2"/>
 <path d="M 9,23 L 9,22 L 10,22 L 10,23 Z" class="fg" style="stroke: hsl(470, 100%, 65%); stroke-width: 0.2"/>
 <path d="M 11,23 L 11,22 L 12,22 L 12,23 Z" class="fg" style="stroke: hsl(480, 100%, 65%); stroke-width: 0.2"/>
 <path d="M 13,23 L 13,22 L 14,22 L 14,23 L 16,23 L 16,24 L 15,24 L 15,26 L 16,26 L 16,27 L 14,27 L 14,26 L 13,26 L 13,25 L 11,25 L 11,24 L 12,24 L 12,23 Z M 14,24 L 14,25 L 13,25 L 13,24 Z" class="fg" style="stroke: hsl(490, 100%, 65%); stroke-width: 0.2"/>
 <path d="M 1,24 L 1,23 L 8,23 L 8,30 L 1,30 Z M 7,29 L 2,29 L 2,24 L 7,24 L 7,25 Z" class="fg" style="stroke: hsl(500, 100%, 65%); stroke-width: 0.2"/>
 <path d="M 10,24 L 10,23 L 11,23 L 11,24 Z" class="fg" style="stroke: hsl(510, 100%, 65%); stroke-width: 0.2"/>
 <path d="M 23,24 L 23,23 L 24,23 L 24,24 Z" class="fg" style="stroke: hsl(520, 100%, 65%); stroke-width: 0.2"/>
 <path d="M 29,24 L 29,23 L 30,23 L 30,25 L 29,25 Z" class="fg" style="stroke: hsl(530, 100%, 65%); stroke-width: 0.2"/>
 <path d="M 9,25 L 9,24 L 10,24 L 10,26 L 9,26 Z" class="fg" style="stroke: hsl(540, 100%, 65%); stroke-width: 0.2"/>
 <path d="M 3,26 L 3,25 L 6,25 L 6,28 L 3,28 Z" class="fg" style="stroke: hsl(550, 100%, 65%); stroke-width: 0.2"/>
 <path d="M 19,26 L 19,25 L 20,25 L 20,26 Z" class="fg" style="stroke: hsl(560, 100%, 65%); stroke-width: 0.2"/>
 <path d="M 10,27 L 10,26 L 11,26 L 11,27 L 12,27 L 12,28 L 10,28 Z" class="fg" style="stroke: hsl(570, 100%, 65%); stroke-width: 0.2"/>
 <path d="M 20,27 L 20,26 L 21,26 L 21,29 L 20,29 L 20,28 L 19,28 L 19,27 Z" class="fg" style="stroke: hsl(580, 100%, 65%); stroke-width: 0.2"/>
 <path d="M 9,29 L 9,28 L 10,28 L 10,30 L 9,30 Z" class="fg" style="stroke: hsl(590, 100%, 65%); stroke-width: 0.2"/>
 <path d="M 13,29 L 13,28 L 14,28 L 14,29 Z" class="fg" style="stroke: hsl(600, 100%, 65%); stroke-width: 0.2"/>
 <path d="M 15,29 L 15,28 L 16,28 L 16,30 L 14,30 L 14,29 Z" class="fg" style="stroke: hsl(610, 100%, 65%); stroke-width: 0.2"/>
 <path d="M 18,29 L 18,28 L 19,28 L 19,30 L 17,30 L 17,29 Z" class="fg" style="stroke: hsl(620, 100%, 65%); stroke-width: 0.2"/>
 <path d="M 11,30 L 11,29 L 13,29 L 13,30 Z" class="fg" style="stroke: hsl(630, 100%, 65%); stroke-width: 0.2"/>
 <path d="M 28,30 L 28,29 L 29,29 L 29,30 Z" class="fg" style="stroke: hsl(640, 100%, 65%); stroke-width: 0.2"/>
</svg>